<svg id="Layer_1" data-name="Layer 1" xmlns="http://www.w3.org/2000/svg" viewBox="0 0 267.42 191.82"><defs><style>.cls-1{fill:#261c1c;opacity:0.8;}</style></defs><path class="cls-1" d="M121.56,154.09v56.16l18.24-18.48h11.28l-21.36,21.36,25.2,28.44H143.64l-19.92-22.68-2.16,2.16v20.52h-8.64V154.09Z" transform="translate(-112.92 -154.09)"/><path class="cls-1" d="M258.12,191.77h8.64v49.8h-8.64v-7a21,21,0,0,1-17,8.4c-12.6,0-24.24-8.88-24.24-26.4,0-17.16,11.52-26,24.24-26a20.6,20.6,0,0,1,17,8.28Zm-32.4,24.84c0,10.68,6,18.72,16.32,18.72,10.56,0,16.56-8.76,16.56-18.6,0-12.84-8.88-18.48-16.56-18.48C233.52,198.25,225.72,204.49,225.72,216.61Z" transform="translate(-112.92 -154.09)"/><path class="cls-1" d="M283.08,191.77h8.64v5.76a17.57,17.57,0,0,1,14.28-7c5.88,0,11.28,2.4,14.28,6.84,2.52,3.72,2.87,7.8,2.87,13.32v30.84h-8.63V211c0-3-.24-6.48-2.28-9.12-1.68-2.16-4.32-3.6-8.16-3.6a10.89,10.89,0,0,0-8.76,3.84c-3.36,4-3.6,9.84-3.6,13.44v26h-8.64Z" transform="translate(-112.92 -154.09)"/><path class="cls-1" d="M339.47,154.09h8.64v43.44a17.57,17.57,0,0,1,14.28-7c5.88,0,11.28,2.4,14.28,6.84,2.52,3.72,2.88,7.8,2.88,13.32v30.84h-8.64V211c0-3-.24-6.48-2.28-9.12-1.68-2.16-4.32-3.6-8.16-3.6a10.86,10.86,0,0,0-8.75,3.84c-3.37,4-3.61,9.84-3.61,13.44v26h-8.64Z" transform="translate(-112.92 -154.09)"/><path class="cls-1" d="M157.63,267.31a21.42,21.42,0,0,0-17,8.16v-7H132v77.4h8.64V311.35a21.14,21.14,0,0,0,17.4,8.4c15.12,0,23.88-12.36,23.88-26C181.87,280.27,173.23,267.31,157.63,267.31Zm-.84,44.76c-10.2,0-16.68-8.28-16.68-18.48,0-12,8.52-18.6,16.56-18.6S173,281.47,173,293.71C173,303.67,166.87,312.07,156.79,312.07Z" transform="translate(-112.92 -154.09)"/><path class="cls-1" d="M218,267.31a17.57,17.57,0,0,0-14.28,7V230.83h-.07v-20.1c0-5.52-.36-9.6-2.88-13.32-3-4.44-8.4-6.84-14.28-6.84a17.57,17.57,0,0,0-14.28,7V154.09h-8.64v87.48h8.64v-26c0-3.6.24-9.48,3.6-13.44a10.89,10.89,0,0,1,8.76-3.84c3.84,0,6.48,1.44,8.16,3.6,2,2.64,2.28,6.12,2.28,9.12v30.6h.07v76.74h8.64v-26c0-3.6.24-9.48,3.6-13.44a10.89,10.89,0,0,1,8.76-3.84c3.84,0,6.48,1.44,8.16,3.6,2,2.64,2.27,6.12,2.27,9.12v30.6h8.64V287.47c0-5.52-.36-9.6-2.88-13.32C229.27,269.71,223.87,267.31,218,267.31Z" transform="translate(-112.92 -154.09)"/><path class="cls-1" d="M289.62,275.59a20.6,20.6,0,0,0-17-8.28c-12.72,0-24.24,8.88-24.24,26,0,17.52,11.64,26.4,24.24,26.4a21,21,0,0,0,17-8.4v7h8.64v-49.8h-8.64Zm-16.08,36.48c-10.32,0-16.32-8-16.32-18.72,0-12.12,7.8-18.36,16.32-18.36,7.68,0,16.56,5.64,16.56,18.48C290.1,303.31,284.1,312.07,273.54,312.07Z" transform="translate(-112.92 -154.09)"/><path class="cls-1" d="M364.14,267.31a16.62,16.62,0,0,0-15,8,14.91,14.91,0,0,0-13.56-8,14.46,14.46,0,0,0-12.36,6.48v-5.28h-8.64v49.8h8.64V291.19c0-6,1.08-16.2,10.92-16.2,9.12,0,9,10.32,9,13.8v29.52h8.64V290.59c0-6,1.08-15.6,11-15.6,8.16,0,8.88,7.44,8.88,13.08v30.24h8.64V286.75C380.34,279.67,378.9,267.31,364.14,267.31Z" transform="translate(-112.92 -154.09)"/></svg>