<svg id="Layer_1" data-name="Layer 1" xmlns="http://www.w3.org/2000/svg" viewBox="0 0 39.44 50"><defs><style>.cls-1{fill:#4b3b2d;}</style></defs><title>K logo fill</title><path class="cls-1" d="M15,61V75.25a1.5,1.5,0,0,1-1.5,1.5h-7A1.5,1.5,0,0,1,5,75.25V59.38a1.54,1.54,0,0,1,.38-1l2.79-3.12a1.5,1.5,0,0,1,2.24,0L14.62,60A1.54,1.54,0,0,1,15,61Z" transform="translate(-5 -27)"/><path class="cls-1" d="M15,61V75.25a1.5,1.5,0,0,1-1.5,1.5h-7A1.5,1.5,0,0,1,5,75.25V59.38a1.54,1.54,0,0,1,.38-1l2.79-3.12a1.5,1.5,0,0,1,2.24,0L14.62,60A1.54,1.54,0,0,1,15,61Z" transform="translate(-5 -27)"/><path class="cls-1" d="M15,61V75.25a1.5,1.5,0,0,1-1.5,1.5h-7A1.5,1.5,0,0,1,5,75.25V59.38a1.54,1.54,0,0,1,.38-1l2.79-3.12a1.5,1.5,0,0,1,2.24,0L14.62,60A1.54,1.54,0,0,1,15,61Z" transform="translate(-5 -27)"/><path class="cls-1" d="M15,61V75.25a1.5,1.5,0,0,1-1.5,1.5h-7A1.5,1.5,0,0,1,5,75.25V59.38a1.54,1.54,0,0,1,.38-1l2.79-3.12a1.5,1.5,0,0,1,2.24,0L14.62,60A1.54,1.54,0,0,1,15,61Z" transform="translate(-5 -27)"/><path class="cls-1" d="M14.62,43.54l-4.21,4.71a1.5,1.5,0,0,1-2.24,0L5.38,45.13a1.54,1.54,0,0,1-.38-1V28.5A1.5,1.5,0,0,1,6.5,27h7A1.5,1.5,0,0,1,15,28.5v14A1.54,1.54,0,0,1,14.62,43.54Z" transform="translate(-5 -27)"/><path class="cls-1" d="M14.62,43.54l-4.21,4.71a1.5,1.5,0,0,1-2.24,0L5.38,45.13a1.54,1.54,0,0,1-.38-1V28.5A1.5,1.5,0,0,1,6.5,27h7A1.5,1.5,0,0,1,15,28.5v14A1.54,1.54,0,0,1,14.62,43.54Z" transform="translate(-5 -27)"/><path class="cls-1" d="M14.62,43.54l-4.21,4.71a1.5,1.5,0,0,1-2.24,0L5.38,45.13a1.54,1.54,0,0,1-.38-1V28.5A1.5,1.5,0,0,1,6.5,27h7A1.5,1.5,0,0,1,15,28.5v14A1.54,1.54,0,0,1,14.62,43.54Z" transform="translate(-5 -27)"/><path class="cls-1" d="M14.62,43.54l-4.21,4.71a1.5,1.5,0,0,1-2.24,0L5.38,45.13a1.54,1.54,0,0,1-.38-1V28.5A1.5,1.5,0,0,1,6.5,27h7A1.5,1.5,0,0,1,15,28.5v14A1.54,1.54,0,0,1,14.62,43.54Z" transform="translate(-5 -27)"/><path class="cls-1" d="M42.94,77H33.56a1.5,1.5,0,0,1-1.12-.5L14,55.86v0l-2.81-3.14a1.51,1.51,0,0,1,0-2L14,47.62v0L32,27.5a1.5,1.5,0,0,1,1.12-.5H42.5a1.5,1.5,0,0,1,1.12,2.5l-19,21.25a1.5,1.5,0,0,0,0,2L44.06,74.5A1.5,1.5,0,0,1,42.94,77Z" transform="translate(-5 -27)"/><path class="cls-1" d="M42.94,77H33.56a1.5,1.5,0,0,1-1.12-.5L14,55.86v0l-2.81-3.14a1.51,1.51,0,0,1,0-2L14,47.62v0L32,27.5a1.5,1.5,0,0,1,1.12-.5H42.5a1.5,1.5,0,0,1,1.12,2.5l-19,21.25a1.5,1.5,0,0,0,0,2L44.06,74.5A1.5,1.5,0,0,1,42.94,77Z" transform="translate(-5 -27)"/><path class="cls-1" d="M42.94,77H33.56a1.5,1.5,0,0,1-1.12-.5L14,55.86v0l-2.81-3.14a1.51,1.51,0,0,1,0-2L14,47.62v0L32,27.5a1.5,1.5,0,0,1,1.12-.5H42.5a1.5,1.5,0,0,1,1.12,2.5l-19,21.25a1.5,1.5,0,0,0,0,2L44.06,74.5A1.5,1.5,0,0,1,42.94,77Z" transform="translate(-5 -27)"/><path class="cls-1" d="M42.94,77H33.56a1.5,1.5,0,0,1-1.12-.5L14,55.86v0l-2.81-3.14a1.51,1.51,0,0,1,0-2L14,47.62v0L32,27.5a1.5,1.5,0,0,1,1.12-.5H42.5a1.5,1.5,0,0,1,1.12,2.5l-19,21.25a1.5,1.5,0,0,0,0,2L44.06,74.5A1.5,1.5,0,0,1,42.94,77Z" transform="translate(-5 -27)"/><path class="cls-1" d="M47,27" transform="translate(-5 -27)"/><path class="cls-1" d="M47,27" transform="translate(-5 -27)"/><path class="cls-1" d="M47,27" transform="translate(-5 -27)"/><path class="cls-1" d="M47,27" transform="translate(-5 -27)"/></svg>